<?xml version="1.0" standalone="no"?>
<!DOCTYPE svg PUBLIC "-//W3C//DTD SVG 20010904//EN"
 "http://www.w3.org/TR/2001/REC-SVG-20010904/DTD/svg10.dtd">
<svg version="1.0" xmlns="http://www.w3.org/2000/svg"
 width="159.000000pt" height="159.000000pt" viewBox="0 0 159.000000 159.000000"
 preserveAspectRatio="xMidYMid meet">
<metadata>
Created by potrace 1.14, written by Peter Selinger 2001-2017
</metadata>
<g transform="translate(0.000000,159.000000) scale(0.100000,-0.100000)"
fill="#000000" stroke="none">
<path d="M484 1491 c-140 -34 -321 -201 -415 -381 -52 -101 -80 -210 -59 -235
20 -24 69 -18 93 11 124 151 339 339 487 427 170 100 316 131 408 88 42 -20
102 -83 102 -107 0 -5 -11 8 -25 28 -32 48 -96 78 -166 78 -100 0 -102 -3 -34
-73 33 -34 73 -88 89 -120 28 -54 31 -57 68 -57 33 0 41 5 63 38 51 77 28 167
-61 234 -81 62 -115 70 -329 73 -104 2 -204 0 -221 -4z"/>
<path d="M334 909 c-3 -6 -4 -11 -3 -13 34 -23 61 -36 73 -36 60 0 446 -140
681 -247 92 -42 94 -44 78 -50 -7 -3 -23 -13 -35 -24 -21 -18 -20 -18 16 1
l39 21 28 -33 c15 -18 28 -41 29 -51 0 -10 5 -15 10 -12 6 3 10 1 10 -4 0 -6
0 -14 0 -18 0 -5 -6 -8 -12 -8 -7 0 -17 -5 -23 -11 -5 -6 -26 -17 -45 -24 -53
-21 -143 -75 -165 -100 l-20 -22 40 5 c87 12 151 30 208 58 32 17 60 29 62 27
1 -2 8 -13 14 -25 6 -13 18 -23 26 -23 7 0 37 -40 66 -88 55 -93 101 -132 154
-132 l26 0 -6 85 c-3 46 -8 95 -10 107 -3 13 -9 48 -15 78 -6 30 -12 66 -15
80 -3 14 -14 75 -25 135 -29 152 -23 142 -88 154 -31 5 -70 13 -87 16 -16 3
-75 14 -130 25 -55 11 -118 22 -140 25 -22 4 -47 8 -55 10 -8 2 -28 6 -45 9
-16 3 -111 19 -210 35 -180 30 -203 34 -325 46 -36 4 -73 9 -82 10 -10 2 -20
-1 -24 -6z"/>
<path d="M1035 490 c-27 -17 -45 -30 -40 -30 6 0 33 14 60 30 28 16 46 30 40
29 -5 0 -32 -13 -60 -29z"/>
<path d="M956 445 c-11 -8 -15 -15 -9 -15 6 0 16 7 23 15 16 19 11 19 -14 0z"/>
<path d="M512 348 c3 -16 1 -28 -4 -28 -6 0 -7 -11 -4 -25 6 -23 4 -25 -19
-19 -22 6 -25 3 -25 -23 0 -17 10 -45 23 -64 18 -27 33 -36 74 -45 28 -6 65
-19 83 -27 23 -12 37 -14 51 -6 28 14 24 27 -27 81 -32 35 -44 54 -39 66 15
35 26 84 21 89 -9 10 -26 -8 -26 -28 0 -35 -19 -59 -43 -55 -12 3 -26 5 -30 5
-4 1 -3 10 3 20 8 15 6 24 -8 37 -9 10 -17 21 -17 25 0 4 -4 11 -9 16 -5 4 -7
-4 -4 -19z"/>
</g>
</svg>
