<?xml version="1.0" encoding="UTF-8" standalone="no"?>
<!-- Created with Inkscape (http://www.inkscape.org/) -->

<svg
   width="41.954514mm"
   height="37.169739mm"
   viewBox="0 0 41.954514 37.169739"
   version="1.1"
   id="svg8383"
   inkscape:version="1.2 (dc2aeda, 2022-05-15)"
   sodipodi:docname="logos-master.svg"
   xmlns:inkscape="http://www.inkscape.org/namespaces/inkscape"
   xmlns:sodipodi="http://sodipodi.sourceforge.net/DTD/sodipodi-0.dtd"
   xmlns="http://www.w3.org/2000/svg"
   xmlns:svg="http://www.w3.org/2000/svg">
  <sodipodi:namedview
     id="namedview8385"
     pagecolor="#ffffff"
     bordercolor="#666666"
     borderopacity="1.0"
     inkscape:pageshadow="2"
     inkscape:pageopacity="0.0"
     inkscape:pagecheckerboard="0"
     inkscape:document-units="mm"
     showgrid="false"
     inkscape:zoom="0.5218504"
     inkscape:cx="408.16296"
     inkscape:cy="1838.6496"
     inkscape:window-width="1657"
     inkscape:window-height="1051"
     inkscape:window-x="71"
     inkscape:window-y="38"
     inkscape:window-maximized="0"
     inkscape:current-layer="layer1"
     inkscape:showpageshadow="2"
     inkscape:deskcolor="#d1d1d1" />
  <defs
     id="defs8380">
    <inkscape:path-effect
       effect="fillet_chamfer"
       id="path-effect7260-9-2-7-98"
       is_visible="true"
       lpeversion="1"
       nodesatellites_param="F,0,0,1,0,0.26458333,0,1 @ F,0,0,1,0,0.26458333,0,1 @ F,0,0,1,0,0.26458333,0,1 @ F,0,0,1,0,0.26458333,0,1 @ F,0,0,1,0,0.26458333,0,1 @ F,0,0,1,0,0.26458333,0,1 @ F,0,0,1,0,0.26458333,0,1 @ F,0,0,1,0,0.26458333,0,1 @ F,0,0,1,0,0.26458333,0,1 @ F,0,0,1,0,0.26458333,0,1"
       unit="px"
       method="auto"
       mode="F"
       radius="1"
       chamfer_steps="1"
       flexible="false"
       use_knot_distance="true"
       apply_no_radius="true"
       apply_with_radius="true"
       only_selected="false"
       hide_knots="false" />
    <inkscape:path-effect
       effect="fillet_chamfer"
       id="path-effect7264-1-11-6-02"
       is_visible="true"
       lpeversion="1"
       nodesatellites_param="C,0,0,1,0,0.13229167,0,1 @ C,0,0,1,0,0.13229167,0,1 @ C,0,0,1,0,0.13229167,0,1 @ C,0,0,1,0,0.13229167,0,1 @ C,0,0,1,0,0.13229167,0,1 @ C,0,0,1,0,0.13229167,0,1 @ C,0,0,1,0,0.13229167,0,1 @ C,0,0,1,0,0.13229167,0,1 @ C,0,0,1,0,0.13229167,0,1 @ C,0,0,1,0,0.13229167,0,1 @ C,0,0,1,0,0.13229167,0,1 @ C,0,0,1,0,0.13229167,0,1 @ C,0,0,1,0,0.13229167,0,1 @ C,0,0,1,0,0.13229167,0,1 @ C,0,0,1,0,0.13229167,0,1 @ C,0,0,1,0,0.13229167,0,1 @ C,0,0,1,0,0.13229167,0,1 @ C,0,0,1,0,0.13229167,0,1 @ C,0,0,1,0,0.13229167,0,1 @ C,0,0,1,0,0.13229167,0,1 @ C,0,0,1,0,0.13229167,0,1 @ C,0,0,1,0,0.13229167,0,1 @ C,0,0,1,0,0.13229167,0,1 @ C,0,0,1,0,0.13229167,0,1 @ C,0,0,1,0,0.13229167,0,1 @ C,0,0,1,0,0.13229167,0,1 @ C,0,0,1,0,0.13229167,0,1 @ C,0,0,1,0,0.13229167,0,1 @ C,0,0,1,0,0.13229167,0,1 @ C,0,0,1,0,0.13229167,0,1 @ C,0,0,1,0,0.13229167,0,1"
       unit="px"
       method="auto"
       mode="F"
       radius="0.5"
       chamfer_steps="1"
       flexible="false"
       use_knot_distance="true"
       apply_no_radius="true"
       apply_with_radius="true"
       only_selected="false"
       hide_knots="false" />
  </defs>
  <g
     inkscape:label="Layer 1"
     inkscape:groupmode="layer"
     id="layer1"
     transform="translate(-33.779815,-553.82934)">
    <path
       id="path15960-8-5-0-2"
       style="fill:#d45500;fill-opacity:1;stroke:none;stroke-width:0.0644897px;stroke-linecap:butt;stroke-linejoin:miter;stroke-opacity:1"
       d="m 42.647584,569.33988 c -0.141035,0.0146 -0.204663,0.12944 -0.142961,0.28026 l 0.103409,0.25267 c 0.337457,0.2274 0.756693,0.37306 0.975658,0.71896 l 2.259526,0.53921 2.618877,0.69326 2.567615,0.87288 2.64457,1.02704 2.387877,0.97566 2.336482,0.92439 2.208018,0.94996 1.771694,0.77035 1.46348,0.71883 0.873002,0.41087 v 0.17974 l -7.446017,4.15944 0.102782,0.10265 7.599936,-4.15944 0.898691,1.05274 0.65888,0.8196 -0.215261,1.86138 -2.469113,0.98762 -1.012937,0.56969 -1.11421,0.59515 -1.38022,1.36751 c 0.01271,0.0864 -0.01163,0.17529 0.126709,0.25329 0.417844,0.0763 0.835667,0.0303 1.253511,0.0253 l 0.531784,-0.4052 c 0.421082,-0.14096 0.866866,-0.13346 1.304153,-0.17721 l 1.152246,-0.27862 1.012938,-0.36716 1.253637,-0.68382 0.797682,-0.41779 0.0253,-0.12671 0.557102,-0.10127 0.4052,1.40554 c 0.04433,0.0591 0.106258,0.0828 0.17722,0.0885 l 0.658499,-0.21513 c 0.113956,0.19819 0.227889,0.45789 0.341845,0.69641 0.359784,0.36668 0.533135,0.82654 0.721728,1.27883 0.383455,0.48538 0.64823,0.97067 0.8104,1.45605 0.425515,0.43281 0.698792,0.90373 0.949584,1.38023 l 1.57017,1.01293 1.532003,0.16463 c 0.220533,-0.0546 0.208811,-0.15583 0.215256,-0.2533 l -0.329115,-4.39373 -2.189374,-11.62322 c -0.03561,-0.18903 -0.217159,-0.3739 -0.405576,-0.41263 -7.502591,-1.54204 -15.005255,-2.83896 -22.507846,-4.08652 -2.500316,-0.44465 -5.048608,-0.64986 -7.589855,-0.88988 -0.02319,-0.002 -0.04485,-0.002 -0.065,0 z m 24.026366,11.57196 0.518439,0.73194 -0.03049,0.51831 -0.655598,0.22873 z m 0.732686,1.03587 0.04787,0.0718 -0.06223,0.0383 z" />
    <g
       id="g26509-0-0-6"
       transform="matrix(0.56983764,0,0,0.56983764,27.95448,496.77195)"
       style="fill:#d45500">
      <path
         style="opacity:1;fill:#d45500;fill-opacity:1;stroke:none;stroke-width:0.264583px;stroke-linecap:butt;stroke-linejoin:miter;stroke-opacity:1"
         d="m 10.235654,128.81643 c 0.718703,-12.92593 14.659026,-27.25329 23.266109,-28.40301 0.144832,-0.0194 0.380822,-0.0405 0.526539,-0.0514 5.522137,-0.413889 10.922965,-0.22124 16.287828,0.15124 0.145733,0.0101 0.382403,0.0148 0.52839,0.0206 4.448404,0.17498 16.785308,7.16465 8.884061,15.79771 -0.09865,0.10778 -0.29867,0.18833 -0.444651,0.18184 l -2.834456,-0.12597 c -0.145981,-0.006 -0.318947,-0.11686 -0.385759,-0.24682 -1.886938,-3.67032 -3.313324,-7.22517 -8.182178,-10.60154 -0.119983,-0.0832 -0.106271,-0.1889 0.03336,-0.23196 2.739485,-0.84478 11.412964,-1.9516 13.439498,6.0284 0.03596,0.1416 0.180336,0.24773 0.326004,0.23618 l 0.01084,-8.6e-4 c 0.145668,-0.0115 0.226139,-0.13325 0.177585,-0.27108 -7.377931,-20.942073 -39.43862,6.91427 -47.2573,18.06917 -0.08387,0.11965 -0.259757,0.26392 -0.396192,0.31622 -1.685776,0.64633 -2.682223,0.33662 -3.779568,-0.44749 -0.118857,-0.0849 -0.212962,-0.1569 -0.212962,-0.15693 z"
         id="path837-4-1-9-7"
         sodipodi:nodetypes="cccccccccc"
         inkscape:path-effect="#path-effect7260-9-2-7-98"
         inkscape:original-d="m 10.2228,129.0807 c 0.546664,-13.12633 14.900841,-27.80516 23.541693,-28.69844 5.704594,-0.447312 11.278464,-0.24101 16.815499,0.14947 4.22695,-0.11089 17.40341,7.0932 8.96826,15.9934 l -3.3631,-0.14947 c -1.97727,-3.80792 -3.37074,-7.49332 -8.52165,-10.98612 2.4359,-0.85295 11.78691,-2.32733 13.75314,6.20305 l 0.53835,-0.0427 c -7.25787,-21.552249 -39.917013,6.98865 -47.494236,18.03642 -1.949232,0.82098 -2.99985,0.43181 -4.237956,-0.50556 z" />
      <path
         style="opacity:1;fill:#d45500;fill-opacity:1;stroke:none;stroke-width:0.264583px;stroke-linecap:butt;stroke-linejoin:miter;stroke-opacity:1"
         d="m 34.077601,152.6584 0.238178,-0.0125 0.133971,0.12534 0.02271,1.61281 0.13037,0.16369 0.932871,0.22804 0.191941,0.14746 c 0.173813,0.35229 0.211129,0.75918 0.143888,1.20789 l -0.113758,0.22585 c -0.15457,0.17215 -0.265634,0.35879 -0.311649,0.56712 l -0.08324,0.2468 -0.03196,0.0586 0.06622,0.14285 2.305736,0.47542 0.244511,-0.0387 c 0.552301,-0.3501 0.690904,-0.9957 0.877117,-1.60729 l 0.05153,-0.25708 c 0.09498,-0.98975 0.229605,-1.8705 0.535244,-2.28094 l 0.219208,-0.0946 0.475957,0.017 0.132208,0.137 0,1.18973 -0.131485,0.14688 -0.131991,0.14162 -0.239863,1.22113 -0.06106,0.25723 -0.246182,0.88216 -0.08908,0.24839 c -0.105802,0.25389 -0.190316,0.51133 -0.569585,0.71964 l -0.02802,0.15607 2.915198,3.18927 0.197259,0.17404 0.86811,0.61403 0.164904,0.19581 c 0.272689,0.5953 0.350239,1.13206 0.09509,1.569 l -0.162186,0.207 c -0.455695,0.46637 -0.911391,0.4968 -1.367086,0.5481 l -0.253278,-0.0322 c -1.484653,-0.58145 -2.969306,-1.41006 -4.453959,-1.72427 l -0.259777,-0.048 c -1.239719,-0.20935 -2.472663,-0.43537 -3.127157,-0.95008 l -0.197586,-0.17549 c -0.830071,-0.79368 -1.078129,-1.70246 -1.368811,-2.5883 l -0.0651,-0.25481 -0.401936,-2.19882 0.108027,-0.11892 2.221911,0.18909 0.201929,-0.10096 0.124191,-0.19871 0.05371,-0.24345 -0.12747,-0.14116 -0.479047,-0.24839 -0.115764,-0.19318 c 0.0067,-0.46286 0.04276,-0.91896 0.747957,-1.22064 l 0.122948,-0.18079 v -0.2907 l -0.126716,-0.17029 -0.01099,-0.003 -0.124512,-0.17027 0.02203,-1.32196 z"
         id="path935-8-8-5-6"
         sodipodi:nodetypes="cccccccccccccccccccccccccccccccc"
         inkscape:path-effect="#path-effect7264-1-11-6-02"
         inkscape:original-d="m 33.945492,152.66534 0.502396,-0.0264 0.02643,1.87737 1.189887,0.29086 c 0.247252,0.41055 0.290194,0.90282 0.185094,1.45431 -0.236912,0.23246 -0.397321,0.49042 -0.423071,0.79326 l -0.158652,0.29086 2.564868,0.52884 c 0.690954,-0.35134 0.810059,-1.11115 1.031235,-1.79805 0.104067,-1.13287 0.251675,-2.146 0.634605,-2.51199 l 0.740373,0.0264 v 1.45431 l -0.237977,0.0264 -0.290861,1.48075 -0.317302,1.137 c -0.151406,0.31557 -0.189881,0.64997 -0.740375,0.89903 l 3.093706,3.38457 1.08412,0.76681 c 0.343238,0.69439 0.439742,1.31476 0.07933,1.79805 -0.528839,0.60977 -1.057677,0.59213 -1.586516,0.66105 -1.568887,-0.59935 -3.137775,-1.49826 -4.706662,-1.79805 -1.349646,-0.22705 -2.715034,-0.46254 -3.358126,-1.05768 -0.949481,-0.85139 -1.185982,-1.84443 -1.507191,-2.80284 l -0.449512,-2.4591 2.485541,0.21153 0.264419,-0.42307 -0.02643,-0.21153 -0.713931,-0.37019 c 0.008,-0.53241 -0.02587,-1.07449 0.872583,-1.40142 v -0.55528 l -0.26442,-0.0793 z" />
    </g>
  </g>
</svg>
